HIERARCHY
ROOT Hips
{
	OFFSET 0.000000 0.000000 0.000000
	CHANNELS 6 Xposition Yposition Zposition Zrotation Yrotation Xrotation 
	JOINT Spine1
	{
		OFFSET -0.013727 5.003763 -0.053727
		CHANNELS 3 Zrotation Yrotation Xrotation
		JOINT Spine2
		{
			OFFSET -0.000000 7.125302 -0.029824
			CHANNELS 3 Zrotation Yrotation Xrotation
			JOINT Chest
			{
				OFFSET -0.000001 7.550064 -0.815971
				CHANNELS 3 Zrotation Yrotation Xrotation
				JOINT Neck1
				{
					OFFSET -0.181677 26.311296 -0.553348
					CHANNELS 3 Zrotation Yrotation Xrotation
					JOINT Neck2
					{
						OFFSET -0.000003 7.709400 2.302585
						CHANNELS 3 Zrotation Yrotation Xrotation
						JOINT Head
						{
							OFFSET -0.000005 6.128913 1.953708
							CHANNELS 3 Zrotation Yrotation Xrotation
							JOINT HeadEnd
							{
								OFFSET 0.003598 16.065401 -1.835379
								CHANNELS 3 Zrotation Yrotation Xrotation
								End Site
								{
									OFFSET 0.000000 0.000000 0.000000
								}
							}
							JOINT Jaw
							{
								OFFSET 0.002637 0.475593 3.094941
								CHANNELS 3 Zrotation Yrotation Xrotation
								End Site
								{
									OFFSET 0.000000 0.000000 0.000000
								}
							}
							JOINT LeftEye
							{
								OFFSET 3.206380 5.380208 7.586883
								CHANNELS 3 Zrotation Yrotation Xrotation
								End Site
								{
									OFFSET 0.000000 0.000000 0.000000
								}
							}
							JOINT RightEye
							{
								OFFSET -3.222440 5.361867 7.558233
								CHANNELS 3 Zrotation Yrotation Xrotation
								End Site
								{
									OFFSET 0.000000 0.000000 0.000000
								}
							}
						}
					}
				}
				JOINT LeftShoulder
				{
					OFFSET 1.621652 23.237164 5.113413
					CHANNELS 3 Zrotation Yrotation Xrotation
					JOINT LeftArm
					{
						OFFSET 14.919845 -0.000001 -5.502326
						CHANNELS 3 Zrotation Yrotation Xrotation
						JOINT LeftForeArm
						{
							OFFSET 28.739309 0.000003 -0.002588
							CHANNELS 3 Zrotation Yrotation Xrotation
							JOINT LeftHand
							{
								OFFSET 27.093979 -0.000003 0.002610
								CHANNELS 3 Zrotation Yrotation Xrotation
								JOINT LeftHandThumb1
								{
									OFFSET 2.276480 -1.392045 3.191413
									CHANNELS 3 Zrotation Yrotation Xrotation
									JOINT LeftHandThumb2
									{
										OFFSET 4.012841 -1.828126 1.641655
										CHANNELS 3 Zrotation Yrotation Xrotation
										JOINT LeftHandThumb3
										{
											OFFSET 2.798516 0.000000 -0.000003
											CHANNELS 3 Zrotation Yrotation Xrotation
											JOINT LeftHandThumbEnd
											{
												OFFSET 3.180791 -0.000002 0.000003
												CHANNELS 3 Zrotation Yrotation Xrotation
												End Site
												{
													OFFSET 0.000000 0.000000 0.000000
												}
											}
										}
									}
								}
								JOINT LeftHandIndex1
								{
									OFFSET 3.247553 -0.531998 2.296170
									CHANNELS 3 Zrotation Yrotation Xrotation
									JOINT LeftHandIndex2
									{
										OFFSET 6.364580 0.012062 0.178600
										CHANNELS 3 Zrotation Yrotation Xrotation
										JOINT LeftHandIndex3
										{
											OFFSET 3.662366 0.000001 -0.000001
											CHANNELS 3 Zrotation Yrotation Xrotation
											JOINT LeftHandIndex4
											{
												OFFSET 2.329243 0.000002 0.000004
												CHANNELS 3 Zrotation Yrotation Xrotation
												JOINT LeftHandIndexEnd
												{
													OFFSET 2.759619 -0.180539 -0.113023
													CHANNELS 3 Zrotation Yrotation Xrotation
													End Site
													{
														OFFSET 0.000000 0.000000 0.000000
													}
												}
											}
										}
									}
								}
								JOINT LeftHandMiddle1
								{
									OFFSET 3.163499 0.240981 1.000332
									CHANNELS 3 Zrotation Yrotation Xrotation
									JOINT LeftHandMiddle2
									{
										OFFSET 6.190777 -0.259276 -1.002548
										CHANNELS 3 Zrotation Yrotation Xrotation
										JOINT LeftHandMiddle3
										{
											OFFSET 4.356522 -0.000005 -0.000000
											CHANNELS 3 Zrotation Yrotation Xrotation
											JOINT LeftHandMiddle4
											{
												OFFSET 2.996875 -0.000007 0.000001
												CHANNELS 3 Zrotation Yrotation Xrotation
												JOINT LeftHandMiddleEnd
												{
													OFFSET 2.304294 -0.294571 -0.031739
													CHANNELS 3 Zrotation Yrotation Xrotation
													End Site
													{
														OFFSET 0.000000 0.000000 0.000000
													}
												}
											}
										}
									}
								}
								JOINT LeftHandRing1
								{
									OFFSET 2.882641 -0.053650 -0.322544
									CHANNELS 3 Zrotation Yrotation Xrotation
									JOINT LeftHandRing2
									{
										OFFSET 5.854542 -0.486203 -1.373841
										CHANNELS 3 Zrotation Yrotation Xrotation
										JOINT LeftHandRing3
										{
											OFFSET 4.350580 0.000000 0.000003
											CHANNELS 3 Zrotation Yrotation Xrotation
											JOINT LeftHandRing4
											{
												OFFSET 2.651324 0.000007 0.000003
												CHANNELS 3 Zrotation Yrotation Xrotation
												JOINT LeftHandRingEnd
												{
													OFFSET 1.936110 0.077685 -0.000070
													CHANNELS 3 Zrotation Yrotation Xrotation
													End Site
													{
														OFFSET 0.000000 0.000000 0.000000
													}
												}
											}
										}
									}
								}
								JOINT LeftHandPinky1
								{
									OFFSET 2.865499 -0.310003 -1.600378
									CHANNELS 3 Zrotation Yrotation Xrotation
									JOINT LeftHandPinky2
									{
										OFFSET 5.087853 -1.331142 -1.771231
										CHANNELS 3 Zrotation Yrotation Xrotation
										JOINT LeftHandPinky3
										{
											OFFSET 3.070975 0.000003 0.000001
											CHANNELS 3 Zrotation Yrotation Xrotation
											JOINT LeftHandPinky4
											{
												OFFSET 1.549667 -0.000000 0.000001
												CHANNELS 3 Zrotation Yrotation Xrotation
												JOINT LeftHandPinkyEnd
												{
													OFFSET 1.944895 -0.157801 0.057219
													CHANNELS 3 Zrotation Yrotation Xrotation
													End Site
													{
														OFFSET 0.000000 0.000000 0.000000
													}
												}
											}
										}
									}
								}
							}
						}
					}
				}
				JOINT RightShoulder
				{
					OFFSET -1.380118 23.180307 5.214158
					CHANNELS 3 Zrotation Yrotation Xrotation
					JOINT RightArm
					{
						OFFSET -15.037197 0.000013 -5.545604
						CHANNELS 3 Zrotation Yrotation Xrotation
						JOINT RightForeArm
						{
							OFFSET -28.736639 0.000003 -0.002598
							CHANNELS 3 Zrotation Yrotation Xrotation
							JOINT RightHand
							{
								OFFSET -27.133617 0.000000 0.002612
								CHANNELS 3 Zrotation Yrotation Xrotation
								JOINT RightHandThumb1
								{
									OFFSET -2.274037 -1.383990 3.163127
									CHANNELS 3 Zrotation Yrotation Xrotation
									JOINT RightHandThumb2
									{
										OFFSET -4.011428 -1.827468 1.640915
										CHANNELS 3 Zrotation Yrotation Xrotation
										JOINT RightHandThumb3
										{
											OFFSET -2.794934 -0.000003 -0.000003
											CHANNELS 3 Zrotation Yrotation Xrotation
											JOINT RightHandThumbEnd
											{
												OFFSET -3.183854 0.000003 -0.000000
												CHANNELS 3 Zrotation Yrotation Xrotation
												End Site
												{
													OFFSET 0.000000 0.000000 0.000000
												}
											}
										}
									}
								}
								JOINT RightHandIndex1
								{
									OFFSET -3.253270 -0.520060 2.282866
									CHANNELS 3 Zrotation Yrotation Xrotation
									JOINT RightHandIndex2
									{
										OFFSET -6.341918 0.012472 0.178266
										CHANNELS 3 Zrotation Yrotation Xrotation
										JOINT RightHandIndex3
										{
											OFFSET -3.654875 -0.000008 -0.000001
											CHANNELS 3 Zrotation Yrotation Xrotation
											JOINT RightHandIndex4
											{
												OFFSET -2.327586 -0.000000 -0.000000
												CHANNELS 3 Zrotation Yrotation Xrotation
												JOINT RightHandIndexEnd
												{
													OFFSET -2.761789 -0.180657 -0.113078
													CHANNELS 3 Zrotation Yrotation Xrotation
													End Site
													{
														OFFSET 0.000000 0.000000 0.000000
													}
												}
											}
										}
									}
								}
								JOINT RightHandMiddle1
								{
									OFFSET -3.168106 0.246594 1.001030
									CHANNELS 3 Zrotation Yrotation Xrotation
									JOINT RightHandMiddle2
									{
										OFFSET -6.180829 -0.258836 -1.000896
										CHANNELS 3 Zrotation Yrotation Xrotation
										JOINT RightHandMiddle3
										{
											OFFSET -4.348906 0.000000 -0.000000
											CHANNELS 3 Zrotation Yrotation Xrotation
											JOINT RightHandMiddle4
											{
												OFFSET -3.000243 -0.000003 -0.000002
												CHANNELS 3 Zrotation Yrotation Xrotation
												JOINT RightHandMiddleEnd
												{
													OFFSET -2.302518 -0.294371 -0.031706
													CHANNELS 3 Zrotation Yrotation Xrotation
													End Site
													{
														OFFSET 0.000000 0.000000 0.000000
													}
												}
											}
										}
									}
								}
								JOINT RightHandRing1
								{
									OFFSET -2.885693 -0.067952 -0.308858
									CHANNELS 3 Zrotation Yrotation Xrotation
									JOINT RightHandRing2
									{
										OFFSET -5.854196 -0.486132 -1.373732
										CHANNELS 3 Zrotation Yrotation Xrotation
										JOINT RightHandRing3
										{
											OFFSET -4.338814 -0.000004 -0.000000
											CHANNELS 3 Zrotation Yrotation Xrotation
											JOINT RightHandRing4
											{
												OFFSET -2.654907 -0.000004 0.000003
												CHANNELS 3 Zrotation Yrotation Xrotation
												JOINT RightHandRingEnd
												{
													OFFSET -1.933570 0.077524 -0.000053
													CHANNELS 3 Zrotation Yrotation Xrotation
													End Site
													{
														OFFSET 0.000000 0.000000 0.000000
													}
												}
											}
										}
									}
								}
								JOINT RightHandPinky1
								{
									OFFSET -2.866429 -0.342798 -1.584145
									CHANNELS 3 Zrotation Yrotation Xrotation
									JOINT RightHandPinky2
									{
										OFFSET -5.091370 -1.332054 -1.772385
										CHANNELS 3 Zrotation Yrotation Xrotation
										JOINT RightHandPinky3
										{
											OFFSET -3.062667 -0.000007 0.000000
											CHANNELS 3 Zrotation Yrotation Xrotation
											JOINT RightHandPinky4
											{
												OFFSET -1.546526 0.000006 -0.000002
												CHANNELS 3 Zrotation Yrotation Xrotation
												JOINT RightHandPinkyEnd
												{
													OFFSET -1.945122 -0.157721 0.057211
													CHANNELS 3 Zrotation Yrotation Xrotation
													End Site
													{
														OFFSET 0.000000 0.000000 0.000000
													}
												}
											}
										}
									}
								}
							}
						}
					}
				}
			}
		}
	}
	JOINT LeftLeg
	{
		OFFSET 10.043214 -8.434526 2.595655
		CHANNELS 3 Zrotation Yrotation Xrotation
		JOINT LeftShin
		{
			OFFSET -0.000001 -43.221752 -0.802913
			CHANNELS 3 Zrotation Yrotation Xrotation
			JOINT LeftFoot
			{
				OFFSET 0.000002 -42.155094 -3.481522
				CHANNELS 3 Zrotation Yrotation Xrotation
				JOINT LeftToeBase
				{
					OFFSET -0.000000 -5.059475 13.231529
					CHANNELS 3 Zrotation Yrotation Xrotation
					JOINT LeftToeEnd
					{
						OFFSET -0.009607 -1.647615 6.513018
						CHANNELS 3 Zrotation Yrotation Xrotation
						End Site
						{
							OFFSET 0.000000 0.000000 0.000000
						}
					}
				}
			}
		}
	}
	JOINT RightLeg
	{
		OFFSET -10.047277 -8.295259 2.620317
		CHANNELS 3 Zrotation Yrotation Xrotation
		JOINT RightShin
		{
			OFFSET 0.000001 -43.362209 -0.805556
			CHANNELS 3 Zrotation Yrotation Xrotation
			JOINT RightFoot
			{
				OFFSET 0.000002 -42.117393 -3.478399
				CHANNELS 3 Zrotation Yrotation Xrotation
				JOINT RightToeBase
				{
					OFFSET -0.000001 -5.079609 13.284196
					CHANNELS 3 Zrotation Yrotation Xrotation
					JOINT RightToeEnd
					{
						OFFSET 0.009532 -1.634383 6.460591
						CHANNELS 3 Zrotation Yrotation Xrotation
						End Site
						{
							OFFSET 0.000000 0.000000 0.000000
						}
					}
				}
			}
		}
	}
}
MOTION
Frames: 5
Frame Time: 0.033333
-0.048956 97.988205 -4.501531 -1.469967 0.673885 -4.790443 0.477117 -0.301888 1.180079 -0.357725 -1.043400 -4.486317 0.485904 -3.515753 11.731949 0.751222 2.355639 10.464448 -1.137100 -3.066530 -3.589591 0.288367 -4.361588 -8.763453 0.000077 -0.000022 0.000006 -0.010077 0.076127 0.012732 0.716343 -3.636329 -10.470029 -0.743079 3.799016 -10.492033 -19.930647 -6.339597 16.270657 -51.489723 -3.014298 17.006538 -0.274445 -29.898243 0.003594 -8.964952 -0.701670 -27.409637 -5.882101 9.861278 0.702590 -10.936860 -0.360575 7.156198 0.000001 8.774814 -0.000001 -16.050735 18.714468 6.293745 -1.844031 2.498502 -2.507276 -10.163589 4.678940 4.621104 -20.975996 -0.000004 0.000002 -21.226255 2.451693 -3.593994 -0.000001 -0.000006 0.000000 -1.362681 2.240796 -0.746323 -21.334887 0.584909 3.008322 -13.821194 -0.000002 0.000003 -23.887129 -0.249078 -0.839482 -61.082981 2.439642 -1.185181 -0.294025 1.679685 0.833255 -14.218192 0.093215 1.300579 -34.211998 -0.287562 0.967170 -20.033178 0.964535 1.212842 -0.000001 0.000000 0.000001 -3.440385 0.788232 0.501656 -15.928165 -3.167305 2.999705 -6.338819 -0.000000 0.000000 -18.123415 3.648176 -4.905661 -0.000004 -0.000000 -0.000002 29.509140 6.905959 15.996716 39.610691 -6.002932 -9.459379 -0.329741 54.179691 -0.183072 -1.681154 2.543767 -41.100719 2.243539 -5.255033 -3.180156 14.282875 -0.826593 6.952498 -0.000003 -12.690591 -0.000000 16.139778 -18.076221 3.048538 1.665665 -1.955919 -2.878297 4.727793 -4.170582 4.993919 11.020511 0.000003 -0.000001 12.109031 -3.735710 -2.866780 0.000000 -0.000001 0.000000 1.291985 -1.928548 -1.498088 14.800113 0.567467 3.865602 14.242553 -1.341732 -6.660648 19.631941 0.143925 -0.648242 50.795666 -0.669647 -6.102070 0.353029 -1.511148 -0.031940 20.222767 3.684309 2.316628 18.787245 0.000005 0.000000 10.751610 -0.479867 1.397906 0.000000 0.000000 -0.000000 3.273803 0.305947 -0.580112 21.486790 11.830364 2.266131 8.162916 0.000002 0.000001 18.399052 -3.798980 -4.940567 0.000003 0.000001 -0.000001 13.528898 14.630126 6.481400 -0.063779 -0.644419 11.673870 -14.040586 1.037680 -11.252250 1.612100 -1.935736 -0.733223 -0.000000 0.000000 0.000002 -8.791579 -13.483284 -3.558878 0.110923 0.267539 17.950996 10.771084 0.194388 -7.225243 -1.432400 0.965196 -0.099417 0.000000 -0.000000 -0.000001 
0.123787 97.958778 -5.284647 -1.408644 0.947730 -4.694934 0.503741 -0.292734 1.250625 -0.324837 -0.966769 -4.484284 0.543676 -3.619597 11.637986 0.826912 2.276370 11.136759 -1.195594 -3.332559 -3.586750 0.073111 -4.361892 -8.679345 0.000077 -0.000022 0.000006 -0.006703 0.044961 0.009518 0.737000 -3.670683 -10.491985 -0.757181 3.762105 -10.518402 -19.693609 -6.205937 16.176172 -51.774544 -3.165494 16.988346 -0.090115 -29.724302 -0.059964 -9.003310 -0.896980 -27.288313 -5.882101 9.861279 0.702589 -10.936859 -0.360576 7.156197 0.000002 8.774814 -0.000001 -16.042364 18.668795 6.307267 -1.844031 2.498504 -2.507276 -10.163589 4.678939 4.621103 -20.975994 -0.000005 0.000002 -21.226250 2.451693 -3.593993 0.000001 -0.000006 -0.000000 -1.362681 2.240796 -0.746323 -21.334887 0.584907 3.008319 -13.821197 -0.000004 0.000001 -23.887131 -0.249079 -0.839481 -60.991638 2.455765 -1.045074 -0.294024 1.679686 0.833256 -14.218192 0.093213 1.300579 -34.212002 -0.287564 0.967169 -20.033178 0.964534 1.212842 -0.000001 0.000000 0.000000 -3.440385 0.788233 0.501654 -15.928169 -3.167307 2.999703 -6.338815 -0.000000 0.000002 -18.123413 3.648176 -4.905664 -0.000005 -0.000000 -0.000002 29.228796 6.902786 16.091267 39.550209 -5.682696 -8.958286 -0.467818 53.787804 -0.283486 -1.510969 2.572877 -41.184006 2.243540 -5.255032 -3.180155 14.282875 -0.826595 6.952496 -0.000003 -12.690590 -0.000000 16.224085 -18.061502 2.965311 1.665665 -1.955920 -2.878296 4.727794 -4.170583 4.993917 11.020513 0.000003 0.000000 12.109030 -3.735713 -2.866778 -0.000001 -0.000002 -0.000000 1.291984 -1.928549 -1.498088 14.800111 0.567467 3.865602 14.242554 -1.341734 -6.660647 19.631939 0.143927 -0.648241 50.609489 -0.768993 -6.022412 0.353029 -1.511151 -0.031940 20.222769 3.684307 2.316627 18.787247 0.000004 0.000001 10.751610 -0.479868 1.397903 -0.000001 0.000002 -0.000000 3.273803 0.305947 -0.580111 21.486792 11.830362 2.266130 8.162916 0.000003 -0.000000 18.399054 -3.798978 -4.940569 0.000003 0.000002 0.000000 14.359043 13.951063 7.999908 -0.057024 -0.611581 8.893901 -14.892218 1.397663 -9.896979 1.607936 -1.947598 -0.831661 0.000000 -0.000000 0.000002 -8.865743 -13.701346 -4.328276 0.076736 0.200971 18.334393 10.861966 0.089603 -6.897046 -1.433197 0.932722 -0.215895 0.000000 0.000000 -0.000001 
0.427476 97.848930 -6.163941 -1.340727 1.359798 -4.632740 0.565682 -0.266207 1.310472 -0.311179 -0.977577 -4.499741 0.657403 -3.718847 11.476374 0.948664 2.263946 12.242393 -1.312336 -3.681067 -3.576031 -0.212242 -4.467543 -8.497740 0.000077 -0.000022 0.000006 -0.001936 0.000211 0.013870 0.757166 -3.708631 -10.517187 -0.767484 3.719164 -10.545730 -19.515882 -5.919334 16.206022 -51.949467 -3.293121 16.723524 0.090606 -29.663158 -0.058981 -8.904401 -0.820016 -27.168953 -5.882100 9.861278 0.702590 -10.936858 -0.360574 7.156198 0.000001 8.774814 -0.000002 -16.040237 18.647547 6.334721 -1.844030 2.498502 -2.507277 -10.163589 4.678940 4.621104 -20.975992 -0.000004 0.000002 -21.226248 2.451694 -3.593993 -0.000001 -0.000006 -0.000001 -1.362680 2.240796 -0.746323 -21.334887 0.584909 3.008321 -13.821197 -0.000003 0.000002 -23.887125 -0.249078 -0.839480 -60.954502 2.517195 -0.969049 -0.294024 1.679686 0.833256 -14.218194 0.093214 1.300579 -34.211998 -0.287563 0.967171 -20.033180 0.964535 1.212842 -0.000001 -0.000001 0.000000 -3.440385 0.788232 0.501656 -15.928165 -3.167306 2.999705 -6.338816 -0.000000 0.000000 -18.123415 3.648176 -4.905662 -0.000004 -0.000000 -0.000003 28.860723 6.865396 16.211016 39.630840 -5.149947 -8.228943 -0.807566 53.083710 -0.567714 -1.370735 2.810216 -41.299683 2.243541 -5.255033 -3.180155 14.282879 -0.826594 6.952497 -0.000002 -12.690590 -0.000001 16.237432 -18.057056 2.910455 1.665665 -1.955922 -2.878298 4.727795 -4.170582 4.993919 11.020513 0.000005 0.000000 12.109035 -3.735709 -2.866779 0.000001 -0.000002 -0.000001 1.291984 -1.928547 -1.498089 14.800117 0.567467 3.865605 14.242554 -1.341733 -6.660649 19.631941 0.143923 -0.648242 50.417763 -0.846714 -5.981148 0.353028 -1.511149 -0.031940 20.222773 3.684305 2.316629 18.787247 0.000006 -0.000000 10.751612 -0.479867 1.397906 0.000000 -0.000001 0.000001 3.273804 0.305946 -0.580109 21.486795 11.830362 2.266131 8.162916 0.000003 0.000001 18.399057 -3.798979 -4.940568 0.000002 0.000002 -0.000001 14.913772 13.210496 7.434402 -0.062563 -0.586629 9.683085 -15.609724 1.339393 -9.476819 1.607504 -1.974594 -0.810448 0.000000 0.000002 0.000002 -9.076707 -14.064088 -5.258945 0.074122 0.160399 19.074324 10.974984 0.043128 -6.678576 -1.428422 0.902800 -0.288679 0.000000 0.000000 -0.000001 
0.691312 97.674438 -6.803972 -1.306453 1.817457 -4.708649 0.660901 -0.226031 1.338600 -0.306365 -1.072841 -4.524868 0.871344 -3.769621 11.257684 1.117133 2.259340 14.131831 -1.472844 -4.125321 -3.595545 -0.604244 -4.623691 -8.020079 0.000077 -0.000022 0.000006 0.001969 0.000400 0.014168 0.769489 -3.705005 -10.547230 -0.771930 3.708725 -10.567810 -19.303001 -5.389222 16.315676 -52.199867 -3.062211 15.650410 0.368185 -30.341789 -0.056139 -8.542850 -0.375123 -27.157049 -5.882101 9.861278 0.702590 -10.936858 -0.360574 7.156197 0.000001 8.774813 0.000001 -16.009840 18.580061 6.365080 -1.844031 2.498503 -2.507276 -10.163589 4.678940 4.621104 -20.975996 -0.000004 0.000002 -21.226255 2.451693 -3.593992 0.000000 -0.000006 -0.000000 -1.362681 2.240796 -0.746323 -21.334887 0.584908 3.008320 -13.821197 -0.000003 0.000003 -23.887133 -0.249077 -0.839480 -60.914177 2.570465 -0.969545 -0.294025 1.679686 0.833255 -14.218195 0.093215 1.300579 -34.211998 -0.287563 0.967169 -20.033180 0.964535 1.212842 -0.000001 -0.000000 -0.000001 -3.440386 0.788233 0.501655 -15.928167 -3.167305 2.999704 -6.338817 -0.000001 0.000000 -18.123413 3.648178 -4.905660 -0.000005 -0.000000 -0.000003 28.325228 6.632587 16.404119 39.946934 -4.267153 -7.620349 -0.822088 52.131950 -0.664781 -1.335624 3.080434 -41.120163 2.243541 -5.255032 -3.180154 14.282878 -0.826595 6.952496 -0.000002 -12.690591 0.000000 16.160141 -17.925167 2.930518 1.665666 -1.955920 -2.878295 4.727794 -4.170582 4.993918 11.020513 0.000003 -0.000001 12.109035 -3.735711 -2.866779 0.000002 -0.000001 -0.000000 1.291984 -1.928548 -1.498089 14.800111 0.567466 3.865602 14.242553 -1.341735 -6.660649 19.631937 0.143925 -0.648242 50.215031 -0.871891 -5.900200 0.353029 -1.511150 -0.031940 20.222771 3.684306 2.316628 18.787247 0.000004 -0.000000 10.751610 -0.479868 1.397905 -0.000001 0.000002 0.000000 3.273804 0.305948 -0.580109 21.486792 11.830361 2.266133 8.162916 0.000001 0.000002 18.399054 -3.798980 -4.940568 0.000002 0.000001 0.000000 14.551215 12.637768 5.336169 -0.068131 -0.559607 12.975630 -15.420659 0.930773 -10.713306 1.610171 -1.995377 -0.692506 -0.000000 0.000000 0.000002 -9.326742 -14.549750 -5.966369 0.072369 0.136647 20.051514 11.114939 0.151007 -6.739356 -1.425485 0.899805 -0.293834 -0.000000 -0.000000 -0.000001 
0.977149 97.449020 -7.315732 -1.351896 2.273611 -5.080400 0.765069 -0.209813 1.242929 -0.304591 -1.167076 -4.544683 1.206881 -3.771822 10.954000 1.299049 2.184605 17.165590 -1.620109 -4.632046 -3.670869 -1.085652 -4.639368 -7.007481 0.000077 -0.000021 0.000006 0.002216 0.007510 0.017438 0.758873 -3.684569 -10.547264 -0.764750 3.702609 -10.559117 -18.791641 -4.453773 16.406527 -52.807178 -1.889061 13.647461 0.974339 -32.562847 -0.172674 -7.822155 0.230676 -27.602318 -5.882101 9.861277 0.702590 -10.936858 -0.360575 7.156196 0.000002 8.774813 0.000001 -15.968429 18.531862 6.462577 -1.844031 2.498502 -2.507276 -10.163589 4.678939 4.621104 -20.975992 -0.000004 0.000002 -21.226255 2.451691 -3.593993 -0.000000 -0.000006 0.000000 -1.362681 2.240796 -0.746323 -21.334892 0.584909 3.008320 -13.821197 -0.000003 0.000002 -23.887133 -0.249079 -0.839481 -61.041138 2.614193 -1.066607 -0.294024 1.679685 0.833255 -14.218192 0.093214 1.300578 -34.212006 -0.287565 0.967170 -20.033180 0.964535 1.212842 -0.000001 -0.000001 0.000000 -3.440386 0.788233 0.501655 -15.928171 -3.167306 2.999703 -6.338817 -0.000001 0.000000 -18.123415 3.648175 -4.905661 -0.000004 -0.000000 -0.000003 27.742483 5.950954 16.633486 40.613579 -3.409246 -7.321332 -0.654714 51.358845 -0.552935 -1.508226 3.265243 -40.940628 2.243540 -5.255033 -3.180156 14.282877 -0.826594 6.952496 -0.000002 -12.690591 0.000001 16.063068 -17.780909 2.928013 1.665665 -1.955921 -2.878297 4.727794 -4.170582 4.993918 11.020513 0.000002 -0.000000 12.109034 -3.735708 -2.866778 0.000001 -0.000003 -0.000000 1.291983 -1.928548 -1.498089 14.800113 0.567469 3.865603 14.242553 -1.341734 -6.660648 19.631939 0.143927 -0.648244 49.948769 -0.913508 -5.898455 0.353029 -1.511151 -0.031940 20.222771 3.684304 2.316629 18.787247 0.000004 -0.000000 10.751613 -0.479868 1.397904 -0.000001 0.000002 -0.000000 3.273804 0.305947 -0.580110 21.486790 11.830362 2.266133 8.162917 0.000003 -0.000001 18.399054 -3.798980 -4.940567 0.000002 0.000002 -0.000001 14.255078 11.861048 3.777116 -0.068535 -0.550776 15.937629 -15.177062 0.666213 -11.967130 1.615261 -2.008257 -0.592715 0.000000 0.000001 0.000002 -9.614214 -14.897964 -6.259519 0.087975 0.113061 21.043715 11.360692 0.235234 -6.928687 -1.424320 0.908900 -0.346184 -0.000000 -0.000000 -0.000001 
